<?xml version="1.0" encoding="utf-8"?>
<svg
	version="1.0"
	id="Layer_1"
	xmlns="http://www.w3.org/2000/svg"
	xmlns:xlink="http://www.w3.org/1999/xlink"
	x="0px"
	y="0px"
	viewBox="0 0 77 77"
	style="enable-background:new 0 0 77 77;"
	xml:space="preserve"
	>
	<g>
		<path
			d="M21.5,54.8c0-2.7,0.1-5.4-0.1-8.1c-0.1-1-0.4-2.2-1.1-3.1c-4.7-6.3-9.8-12.4-14.3-18.9c-2-2.9-3.6-6.3-4.6-9.6
		C-1.1,6.6,3.1,1,12,0.7C20.9,0.4,28.9,3,36.4,7.5c1.8,1.1,3,1.2,4.9,0.2c7-3.8,14.4-6.1,22.4-6.9c8.3-0.9,13.6,5.5,12.4,13.8
		c-0.8,5.8-3.3,10.9-6.8,15.4c-3.7,4.8-7.8,9.3-11.8,13.9c-0.8,1-1.3,1.9-1.2,3.1c0.1,5,0,10,0,15c0,4.4-1.6,8-5.3,10.4
		c-7.4,4.7-15.2,5.2-23,1.2c-4.3-2.2-6.5-6.1-6.5-11C21.5,60,21.5,57.4,21.5,54.8z M33.3,13.9c-6.6-3.9-13.4-6.3-21-6
		C8.4,8,7.5,9.2,8.6,13.1c0.1,0.2,0.1,0.4,0.2,0.6c1.6,3.2,2.9,6.6,5,9.4c4.5,6.2,9.4,12,14.1,18.1c0.6,0.8,1,1.9,1,2.9
		c0.1,6,0,11.9,0.1,17.9c0,3.2,1.3,5.1,4.3,6.1c4.2,1.4,8.3,1.1,12.3-0.8c2.2-1.1,3.4-2.8,3.4-5.4c-0.1-6.1-0.1-12.3,0-18.4
		c0-0.8,0.4-1.7,0.9-2.2c2.2-2.5,4.7-4.8,6.9-7.3c4-4.4,7.9-9,10.2-14.6c0.9-2.2,1.6-4.5,1.8-6.9c0.3-3.3-1.5-5-4.9-4.5
		c-2.7,0.4-5.4,0.9-7.9,1.7c-3.8,1.2-7.4,2.6-11,3.9c0.1,0.5,0.1,0.6,0.2,0.7c0.3,0.4,0.6,0.8,0.9,1.1c2.9,3.6,4.8,7.5,5,12.3
		c0.5,9.6-8.7,16-17.2,11.8c-5.4-2.6-8.1-9.3-6.4-15.6C28.5,20.2,30.6,17,33.3,13.9z M38.8,18.3c-1.3,2.1-2.7,3.8-3.4,5.8
		c-0.6,1.8-0.8,3.9-0.5,5.8c0.3,2.4,2.5,3.7,4.7,3.6c2.2-0.2,3.7-1.7,3.9-4.2C44,24.9,41.9,21.6,38.8,18.3z"
		/>
	</g>
</svg>
