<?xml version="1.0" encoding="utf-8"?>
<!-- Generator: Adobe Illustrator 26.5.0, SVG Export Plug-In . SVG Version: 6.00 Build 0)  -->
<svg version="1.0" id="Layer_1" xmlns="http://www.w3.org/2000/svg" xmlns:xlink="http://www.w3.org/1999/xlink" x="0px" y="0px"
	 viewBox="0 0 347.7 143.7" style="enable-background:new 0 0 347.7 143.7;" xml:space="preserve">
<style type="text/css">
	.st0{fill:#FFFFFF;}
</style>
<g>
	<path class="st0" d="M146,132.4c-0.1,0-0.2,0.1-0.3,0.1c-0.3-0.4-0.6-0.9-0.9-1.3c-4.4-7.1-8.9-14.1-13.3-21.2
		c-0.3-0.5-0.9-1.2-1.3-1.2c-2.5-0.1-4.9-0.1-7.4-0.1c0,11.5,0,22.8,0,34.1c2.3,0,4.5,0,6.9,0c0-8,0-15.9,0-24.2
		c0.6,0.9,0.9,1.4,1.2,1.9c4.4,7,8.7,14.1,13.1,21.1c0.3,0.5,0.9,1.2,1.5,1.2c2.4,0.1,4.8,0.1,7.4,0.1c0-11.4,0-22.7,0-34
		c-2.3,0-4.6,0-6.9,0C146,116.8,146,124.6,146,132.4z"/>
	<path class="st0" d="M197.9,142.8c0-6.2,0-12.3,0-18.3c-5.3,0-10.6,0-15.8,0c0,1.9,0,3.6,0,5.5c3.1,0,6,0,9.1,0
		c-0.3,2.2-1.3,3.8-2.9,5.1c-4.7,3.8-12.6,2.4-15.6-2.9c-1.6-2.8-1.8-5.9-1.3-9c0.6-3.9,2.6-6.9,6.5-8.2c3.9-1.3,7.6-0.8,10.7,2.2
		c0.7,0.7,1.2,1.5,1.9,2.3c2-1.1,4-2.1,6-3.2c-0.2-0.4-0.3-0.6-0.4-0.8c-5.5-8.3-19-9.9-26.4-3c-5.9,5.4-6.8,12.3-4.6,19.6
		c3.5,11.6,18.3,15.1,26.9,6.7c0,0,0.2,0,0.5,0.1c0,1.3,0,2.6,0,4C194.4,142.8,196.1,142.8,197.9,142.8z"/>
	<path class="st0" d="M241.2,118.6c-2.7-7.5-11.1-11.8-19.7-10.1c-8.8,1.7-14.1,8.6-13.8,17.8c0.3,9.3,6,15.8,14.7,16.9
		c8.6,1.1,16.8-3.4,18.7-10.2c-0.3-0.1-0.7-0.3-1-0.4c-1.8-0.6-3.5-1.3-5.3-1.9c-3.3,5.3-7.3,7.2-12.4,5.9c-4.7-1.2-7.4-4.8-7.7-10
		c-0.3-5.2,2.1-9.4,6.4-11c2.2-0.9,4.5-0.9,6.9-0.4c3.2,0.8,5.4,2.9,6.8,5.9C237,120.1,239.1,119.4,241.2,118.6z"/>
	<path class="st0" d="M83.1,108.8c0,8-0.2,15.8,0.1,23.6c0.2,5.5,3.4,9,8.7,10.4c3.2,0.8,6.4,0.8,9.6-0.2c4.9-1.5,7.8-5,8.2-10.1
		c0.1-0.8,0.1-1.6,0.1-2.4c0-6.5,0-13,0-19.5c0-0.6-0.1-1.1-0.1-1.7c-2.4,0-4.6,0-6.9,0c0,0.7,0,1.3,0,1.8c0,6.1,0,12.3,0,18.4
		c0,0.9,0,1.8-0.2,2.8c-0.5,3.6-2.7,5.4-6.4,5.3c-3.4,0-5.5-1.9-6-5.4c-0.1-0.8-0.1-1.6-0.1-2.4c0-6.2,0-12.5,0-18.7
		c0-0.6,0-1.1,0-1.7C87.6,108.8,85.4,108.8,83.1,108.8z"/>
	<path class="st0" d="M289.1,133.4c0.6,3.4,2.2,5.9,4.9,7.5c5.2,3,10.6,3.3,16.1,1c3.6-1.5,5.5-4.3,5.7-8.2c0.2-3.9-1.5-6.8-4.9-8.6
		c-1.6-0.8-3.4-1.5-5.1-2.1c-2-0.7-4-1.3-6-2.1c-1.5-0.6-2.6-1.6-2.5-3.4c0.1-1.6,1.3-2.8,3.1-3.3c4-1,6.6,0.3,8.5,4.6
		c2.2-0.5,4.3-1.1,6.6-1.6c-0.3-2.2-1.3-3.8-2.7-5.2c-4.5-4.7-14.8-5.1-19.7-0.8c-4.7,4.1-3.9,11.5,1.6,14.4c1.9,1,4,1.6,6,2.4
		c2,0.8,4.1,1.5,6,2.5c1.4,0.7,1.9,2.2,1.7,3.8c-0.2,1.6-1.3,2.6-2.8,3.1c-3.6,1-8.3-0.2-9.3-4.7c-0.1-0.2-0.2-0.5-0.3-0.7
		C293.8,132.3,291.5,132.9,289.1,133.4z"/>
	<path class="st0" d="M334.4,136.6c0-2.7,0-5.2,0-7.8c3.7,0,7.4,0,11,0c0-2.1,0-4,0-6.1c-3.7,0-7.3,0-11,0c0-2.7,0-5.2,0-7.9
		c4.2,0,8.3,0,12.4,0c0-2.1,0-4,0-6c-6.6,0-13,0-19.6,0c0,11.4,0,22.7,0,34c6.6,0,13,0,19.5,0c0-2,0-4,0-6.2
		C342.7,136.6,338.6,136.6,334.4,136.6z"/>
	<path class="st0" d="M19.2,142.8c0-5,0-9.8,0-14.6c0-1,0.3-2.1,0.9-3c3-4.9,6.1-9.8,9.2-14.7c0.3-0.5,0.6-1,1-1.7
		c-2.3,0-4.3,0.1-6.3,0c-1,0-1.6,0.3-2.1,1.2c-1.8,3.1-3.7,6.1-5.5,9.2c-0.2,0.4-0.5,0.7-0.9,1.2c-2.2-3.6-4.2-7-6.2-10.4
		c-0.3-0.4-0.7-1.1-1-1.1c-2.4-0.1-4.8-0.1-7.4-0.1c0.4,0.7,0.7,1.2,1,1.7c3.1,5,6.3,9.9,9.3,14.9c0.6,0.9,0.9,2.1,0.9,3.2
		c0.1,4.2,0,8.5,0,12.7c0,0.6,0,1.1,0,1.8c2.2,0,4.2,0,6.1,0C18.5,142.9,18.7,142.8,19.2,142.8z"/>
	<path d="M157.4,54.4c0-2.7,0.1-5.4-0.1-8.1c-0.1-1-0.4-2.2-1.1-3.1c-4.7-6.3-9.8-12.4-14.3-18.9c-2-2.9-3.6-6.3-4.6-9.6
		c-2.6-8.5,1.6-14.1,10.5-14.4c8.8-0.3,16.9,2.3,24.4,6.8c1.8,1.1,3,1.2,4.9,0.2c7-3.8,14.4-6.1,22.4-6.9
		c8.3-0.9,13.6,5.5,12.4,13.8c-0.8,5.8-3.3,10.9-6.8,15.4c-3.7,4.8-7.8,9.3-11.8,13.9c-0.8,1-1.3,1.9-1.2,3.1c0.1,5,0,10,0,15
		c0,4.4-1.6,8-5.3,10.4c-7.4,4.7-15.2,5.2-23,1.2c-4.3-2.2-6.5-6.1-6.5-11C157.4,59.6,157.4,57,157.4,54.4z M169.1,13.5
		c-6.6-3.9-13.4-6.3-21-6c-3.9,0.1-4.8,1.3-3.7,5.2c0.1,0.2,0.1,0.4,0.2,0.6c1.6,3.2,2.9,6.6,5,9.4c4.5,6.2,9.4,12,14.1,18.1
		c0.6,0.8,1,1.9,1,2.9c0.1,6,0,11.9,0.1,17.9c0,3.2,1.3,5.1,4.3,6.1c4.2,1.4,8.3,1.1,12.3-0.8c2.2-1.1,3.4-2.8,3.4-5.4
		c-0.1-6.1-0.1-12.3,0-18.4c0-0.8,0.4-1.7,0.9-2.2c2.2-2.5,4.7-4.8,6.9-7.3c4-4.4,7.9-9,10.2-14.6c0.9-2.2,1.6-4.5,1.8-6.9
		c0.3-3.3-1.5-5-4.9-4.5c-2.7,0.4-5.4,0.9-7.9,1.7c-3.8,1.2-7.4,2.6-11,3.9c0.1,0.5,0.1,0.6,0.2,0.7c0.3,0.4,0.6,0.8,0.9,1.1
		c2.9,3.6,4.8,7.5,5,12.3c0.5,9.6-8.7,16-17.2,11.8c-5.4-2.6-8.1-9.3-6.4-15.6C164.4,19.8,166.4,16.6,169.1,13.5z M174.6,17.9
		c-1.3,2.1-2.7,3.8-3.4,5.8c-0.6,1.8-0.8,3.9-0.5,5.8c0.3,2.4,2.5,3.7,4.7,3.6c2.2-0.2,3.7-1.7,3.9-4.2
		C179.9,24.5,177.8,21.2,174.6,17.9z"/>
	<path d="M146,132.4c0-7.8,0-15.6,0-23.5c2.3,0,4.6,0,6.9,0c0,11.3,0,22.6,0,34c-2.5,0-4.9,0.1-7.4-0.1c-0.5,0-1.1-0.7-1.5-1.2
		c-4.4-7-8.7-14.1-13.1-21.1c-0.3-0.5-0.6-1-1.2-1.9c0,8.4,0,16.2,0,24.2c-2.4,0-4.6,0-6.9,0c0-11.3,0-22.6,0-34.1
		c2.5,0,4.9-0.1,7.4,0.1c0.5,0,1,0.7,1.3,1.2c4.5,7.1,8.9,14.1,13.3,21.2c0.3,0.4,0.6,0.9,0.9,1.3
		C145.8,132.4,145.9,132.4,146,132.4z"/>
	<path d="M197.9,142.8c-1.8,0-3.5,0-5.4,0c0-1.4,0-2.7,0-4c-0.3,0-0.4-0.1-0.5-0.1c-8.6,8.5-23.4,4.9-26.9-6.7
		c-2.2-7.3-1.3-14.2,4.6-19.6c7.5-6.9,21-5.2,26.4,3c0.1,0.2,0.2,0.4,0.4,0.8c-2,1.1-4,2.1-6,3.2c-0.6-0.8-1.2-1.6-1.9-2.3
		c-3.1-3-6.8-3.4-10.7-2.2c-3.9,1.3-5.9,4.2-6.5,8.2c-0.5,3.1-0.3,6.2,1.3,9c3,5.3,10.9,6.8,15.6,2.9c1.6-1.3,2.5-2.9,2.9-5.1
		c-3.1,0-6,0-9.1,0c0-1.9,0-3.7,0-5.5c5.2,0,10.5,0,15.8,0C197.9,130.5,197.9,136.6,197.9,142.8z"/>
	<path d="M55.1,108.2c10.4,0,17.4,7.2,17.4,17.7c0,10.2-7.2,17.4-17.4,17.4c-10.4,0-17.5-7.1-17.5-17.8
		C37.6,115.4,44.8,108.2,55.1,108.2z M65.5,126.3c0-3.7-0.8-6.6-3.3-8.9c-4.3-4-11.7-3.4-15.3,1.2c-3.8,4.8-2.7,13.3,2.1,16.5
		c3.5,2.4,7.4,2.5,11.1,0.6C64,133.6,65.3,130.1,65.5,126.3z"/>
	<path d="M281.8,142.9c-2.1,0-4.1,0.1-6,0c-0.5,0-1.2-0.5-1.3-1c-0.7-1.6-1.2-3.2-1.8-4.9c-0.3-0.9-0.7-1.2-1.6-1.2
		c-4,0-7.9,0-11.9,0c-1,0-1.5,0.3-1.8,1.2c-0.6,2-1.4,3.9-2,5.8c-2.4,0-4.7,0-7.1,0c0.1-0.5,0.2-1,0.4-1.4
		c3.9-10.5,7.7-20.9,11.5-31.4c0.4-1,0.8-1.4,1.8-1.3c2.1,0.1,4.1,0,6.2,0.1c0.5,0,1.3,0.5,1.5,1c4,10.8,8,21.5,12,32.3
		C281.7,142.3,281.7,142.5,281.8,142.9z M270.1,129.8c-1.7-4.8-3.3-9.4-5.1-14.5c-1.8,5.1-3.4,9.7-5.1,14.5
		C263.5,129.8,266.6,129.8,270.1,129.8z"/>
	<path d="M241.2,118.6c-2.2,0.8-4.2,1.5-6.5,2.3c-1.4-3-3.5-5.1-6.8-5.9c-2.3-0.5-4.6-0.5-6.9,0.4c-4.2,1.6-6.7,5.8-6.4,11
		c0.3,5.3,3.1,8.8,7.7,10c5,1.3,9.1-0.6,12.4-5.9c1.7,0.6,3.5,1.3,5.3,1.9c0.3,0.1,0.7,0.3,1,0.4c-1.9,6.9-10.1,11.3-18.7,10.2
		c-8.7-1.1-14.4-7.6-14.7-16.9c-0.3-9.2,5-16.1,13.8-17.8C230.1,106.9,238.6,111.1,241.2,118.6z"/>
	<path d="M83.1,108.8c2.4,0,4.6,0,7,0c0,0.6,0,1.2,0,1.7c0,6.2,0,12.5,0,18.7c0,0.8,0,1.6,0.1,2.4c0.5,3.5,2.6,5.4,6,5.4
		c3.7,0,5.8-1.7,6.4-5.3c0.1-0.9,0.2-1.8,0.2-2.8c0-6.1,0-12.3,0-18.4c0-0.6,0-1.2,0-1.8c2.4,0,4.6,0,6.9,0c0,0.6,0.1,1.2,0.1,1.7
		c0,6.5,0,13,0,19.5c0,0.8,0,1.6-0.1,2.4c-0.4,5.1-3.3,8.7-8.2,10.1c-3.2,1-6.4,1-9.6,0.2c-5.3-1.4-8.5-4.9-8.7-10.4
		C82.9,124.6,83.1,116.8,83.1,108.8z"/>
	<path d="M289.1,133.4c2.4-0.6,4.7-1.1,7-1.6c0.1,0.3,0.3,0.5,0.3,0.7c1,4.5,5.6,5.8,9.3,4.7c1.5-0.4,2.5-1.4,2.8-3.1
		c0.2-1.6-0.2-3-1.7-3.8c-1.9-1-4-1.7-6-2.5c-2-0.8-4.1-1.4-6-2.4c-5.5-2.9-6.3-10.3-1.6-14.4c4.9-4.3,15.1-3.9,19.7,0.8
		c1.4,1.4,2.4,3,2.7,5.2c-2.2,0.6-4.4,1.1-6.6,1.6c-1.9-4.3-4.5-5.6-8.5-4.6c-1.8,0.5-3,1.7-3.1,3.3c-0.2,1.8,1,2.8,2.5,3.4
		c2,0.8,4,1.3,6,2.1c1.7,0.6,3.5,1.2,5.1,2.1c3.4,1.8,5.2,4.7,4.9,8.6c-0.2,3.9-2.1,6.7-5.7,8.2c-5.5,2.2-10.9,2-16.1-1
		C291.3,139.3,289.7,136.8,289.1,133.4z"/>
	<path d="M334.4,136.6c4.2,0,8.3,0,12.4,0c0,2.2,0,4.1,0,6.2c-6.5,0-13,0-19.5,0c0-11.3,0-22.6,0-34c6.5,0,13,0,19.6,0
		c0,2,0,3.9,0,6c-4.1,0-8.2,0-12.4,0c0,2.7,0,5.2,0,7.9c3.6,0,7.2,0,11,0c0,2.1,0,4,0,6.1c-3.6,0-7.2,0-11,0
		C334.4,131.5,334.4,134,334.4,136.6z"/>
	<path d="M19.2,142.8c-0.5,0-0.7,0.1-1,0.1c-1.9,0-3.9,0-6.1,0c0-0.6,0-1.2,0-1.8c0-4.2,0.1-8.5,0-12.7c0-1.1-0.3-2.2-0.9-3.2
		c-3-5-6.2-9.9-9.3-14.9c-0.3-0.5-0.5-0.9-1-1.7c2.6,0,5,0,7.4,0.1c0.4,0,0.8,0.7,1,1.1c2,3.4,4.1,6.8,6.2,10.4
		c0.3-0.5,0.6-0.8,0.9-1.2c1.8-3.1,3.7-6.1,5.5-9.2c0.5-0.9,1.1-1.2,2.1-1.2c2,0.1,4.1,0,6.3,0c-0.4,0.7-0.7,1.2-1,1.7
		c-3.1,4.9-6.2,9.8-9.2,14.7c-0.5,0.9-0.8,2-0.9,3C19.1,133,19.2,137.8,19.2,142.8z"/>
</g>
</svg>
